<?xml version="1.0" standalone="no"?>
<!DOCTYPE svg PUBLIC "-//W3C//DTD SVG 20010904//EN"
 "http://www.w3.org/TR/2001/REC-SVG-20010904/DTD/svg10.dtd">
<svg version="1.0" xmlns="http://www.w3.org/2000/svg"
 width="260.000000pt" height="260.000000pt" viewBox="0 0 260.000000 260.000000"
 preserveAspectRatio="xMidYMid meet">
<metadata>
Created by potrace 1.14, written by Peter Selinger 2001-2017
</metadata>
<g transform="translate(0.000000,260.000000) scale(0.100000,-0.100000)"
fill="#000000" stroke="none">
<path d="M249 2011 c-7 -33 -2 -244 6 -249 5 -4 75 -7 155 -8 80 -1 149 -2
153 -3 4 0 7 -159 7 -352 -2 -403 -7 -444 -65 -495 -19 -17 -53 -36 -75 -43
-64 -19 -196 -15 -270 8 -112 36 -106 43 -105 -119 0 -116 3 -141 15 -145 38
-12 108 -17 265 -21 132 -3 186 0 240 12 181 42 310 157 346 309 11 50 20
1088 9 1104 -6 8 -679 10 -681 2z"/>
<path d="M1282 2010 c-5 -4 -8 -1336 -3 -1397 1 -10 44 -13 181 -13 l180 0 1
33 c0 17 0 158 0 312 l-1 280 268 0 267 -1 3 -312 2 -312 183 0 183 0 -1 708
0 707 -180 0 -180 0 -3 -257 -2 -258 -38 -1 c-33 0 -476 0 -494 1 -4 0 -6 116
-5 258 l2 257 -178 0 c-98 0 -182 -2 -185 -5z"/>
</g>
</svg>
